{"title":"Arrow S04E12 Unchained 1080P WEB-DL DD5 1 H 264","uid":13425152,"size":1731146386,"categoryP":"video","categoryS":"hd___tv_shows","magnet":"?xt=urn:btih:dc6283ab48e2c2d40a53db8b8f5825dfdf841d7a&amp;dn=Arrow+S04E12+Unchained+1080P+WEB-DL+DD5+1+H+264&amp;tr=udp%3A%2F%2Ftracker.leechers-paradise.org%3A6969&amp;tr=udp%3A%2F%2Fzer0day.ch%3A1337&amp;tr=udp%3A%2F%2Fopen.demonii.com%3A1337&amp;tr=udp%3A%2F%2Ftracker.coppersurfer.tk%3A6969&amp;tr=udp%3A%2F%2Fexodus.desync.com%3A6969","seeders":0,"leechers":0,"uploader":"jmanwf","files":2,"time":1454586179,"description":"The team faces off against a formidable villain nicknamed The Calculator (guest star Tom Amandes). Meanwhile, Nyssa (recurring guest star Katrina Law) makes her move and Roy Harper (former series star Colton Haynes) returns to Star City.\r\n\r\n\r\n\r\nVideo\r\nID : 2\r\nFormat : AVC\r\nFormat/Info : Advanced Video Codec\r\nFormat profile :   \r\nFormat settings, CABAC : Yes\r\nFormat settings, ReFrames : 4 frames\r\nCodec ID : avc1\r\nCodec ID/Info : Advanced Video Coding\r\nDuration : 42mn 28s\r\nBit rate : 4 921 Kbps\r\nWidth : 1 916 pixels\r\nHeight : 1 076 pixels\r\nDisplay aspect ratio : 16:9\r\nFrame rate mode : Constant\r\nFrame rate : 23.976 fps\r\nColor space : YUV\r\nChroma subsampling : 4:2:0\r\nBit depth : 8 bits\r\nScan type : Progressive\r\nBits/(Pixel*Frame) : 0.100\r\nStream size : 1.46 GiB (91%)\r\nLanguage : English\r\nEncoded date : UTC 2016-02-04 10:07:02\r\nTagged date : UTC 2016-02-04 10:11:10\r\nColor range : Limited\r\nColor primaries : BT.709\r\nTransfer characteristics : BT.709\r\nMatrix coefficients : BT.709\r\n\r\nAudio #1\r\nID : 1\r\nFormat : AAC\r\nFormat/Info : Advanced Audio Codec\r\nFormat profile : LC\r\nCodec ID : 40\r\nDuration : 42mn 28s\r\nBit rate mode : Variable\r\nBit rate : 124 Kbps\r\nMaximum bit rate : 201 Kbps\r\nChannel(s) : 2 channels\r\nChannel positions : Front: L R\r\nSampling rate : 48.0 KHz\r\nCompression mode : Lossy\r\nStream size : 37.8 MiB (2%)\r\nLanguage : English\r\nEncoded date : UTC 2016-02-04 10:07:02\r\nTagged date : UTC 2016-02-04 10:11:10\r\n\r\nAudio #2\r\nID : 3\r\nFormat : AC-3\r\nFormat/Info : Audio Coding 3\r\nMode extension : CM (complete main)\r\nFormat settings, Endianness : Big\r\nCodec ID : ac-3\r\nDuration : 42mn 28s\r\nBit rate mode : Constant\r\nBit rate : 384 Kbps\r\nChannel(s) : 6 channels\r\nChannel positions : Front: L C R, Side: L R, LFE\r\nSampling rate : 48.0 KHz\r\nBit depth : 16 bits\r\nCompression mode : Lossy\r\nStream size : 117 MiB (7%)\r\nLanguage : English\r\nEncoded date : UTC 2016-02-04 10:07:02\r\nTagged date : UTC 2016-02-04 10:11:10\r\n\r\nText\r\nID : 4-CC1\r\nFormat : EIA-608\r\nMuxing mode : Final Cut\r\nCodec ID : c608\r\nDuration : 41mn 50s\r\nBit rate mode : Constant\r\nStream size : 0.00 Byte (0%)\r\nLanguage : English\r\nEncoded date : UTC 2016-02-04 10:07:03\r\nTagged date : UTC 2016-02-04 10:07:08","torrent":{"xt":"urn:btih:dc6283ab48e2c2d40a53db8b8f5825dfdf841d7a","amp;dn":"Arrow+S04E12+Unchained+1080P+WEB-DL+DD5+1+H+264","amp;tr":["udp%3A%2F%2Ftracker.leechers-paradise.org%3A6969","udp%3A%2F%2Fzer0day.ch%3A1337","udp%3A%2F%2Fopen.demonii.com%3A1337","udp%3A%2F%2Ftracker.coppersurfer.tk%3A6969","udp%3A%2F%2Fexodus.desync.com%3A6969"],"infoHash":"dc6283ab48e2c2d40a53db8b8f5825dfdf841d7a","infoHashBuffer":{"type":"Buffer","data":[220,98,131,171,72,226,194,212,10,83,219,139,143,88,37,223,223,132,29,122]},"announce":[],"urlList":[]}}